#N canvas 338 209 1674 1004 12;
#X obj 206 41 bng 15 250 50 0 empty empty Open_File 17 7 0 10 -260097
-257985 -1;
#X obj 345 226 delay 500;
#X msg 345 257 start;
#X obj 421 308 readsf~;
#X obj 460 58 openpanel;
#X msg 421 257 open \$1;
#X obj 206 60 bng 15 250 50 0 empty empty Play 17 7 0 10 -4034 -4032
-1;
#X obj 421 347 outlet~;
#X obj 421 226 symbol;
#X obj 206 79 bng 15 250 50 0 empty empty Stop 17 7 0 10 -258113 -4032
-1;
#X msg 206 289 stop;
#X obj 345 195 spigot;
#X msg 337 122 0;
#X obj 337 86 loadbang;
#X obj 384 160 int;
#X msg 384 122 1;
#X obj 295 226 -;
#X msg 295 195 1;
#X obj 256 257 spigot;
#X connect 0 0 4 0;
#X connect 1 0 2 0;
#X connect 2 0 3 0;
#X connect 3 0 7 0;
#X connect 3 1 6 0;
#X connect 4 0 15 0;
#X connect 4 0 8 1;
#X connect 4 0 6 0;
#X connect 5 0 3 0;
#X connect 6 0 11 0;
#X connect 6 0 18 0;
#X connect 8 0 5 0;
#X connect 9 0 10 0;
#X connect 10 0 3 0;
#X connect 11 0 1 0;
#X connect 11 0 8 0;
#X connect 12 0 14 0;
#X connect 13 0 12 0;
#X connect 14 0 11 1;
#X connect 14 0 16 1;
#X connect 14 0 17 0;
#X connect 15 0 14 0;
#X connect 16 0 18 1;
#X connect 17 0 16 0;
#X connect 18 0 0 0;
#X coords 0 -1 1 1 85 80 1 200 20;
