#N canvas 808 269 1208 919 12;
#X obj 146 247 inlet~;
#X obj 146 505 +~;
#X obj 108 194 hsl 128 15 1 20 1 0 empty empty DELAY 50 8 0 12 -262130
-159808 -4160 13646 1;
#X floatatom 242 191 5 0 0 0 - - -;
#X text 103 209 1;
#X obj 80 596 outlet~;
#X obj 287 142 bng 15 250 50 0 empty empty Watery 17 7 0 10 -4032 -4034
-1;
#X obj 312 104 tgl 15 0 empty empty ON 17 7 0 10 -24198 -24198 -1 1
1;
#X text 284 120 Presets;
#X obj 80 540 Mixer2Chan~;
#X obj 182 315 LFO~;
#X obj 108 120 hsl 128 15 0 50 0 0 empty empty SPEED 50 8 0 12 -262130
-159808 -4160 5080 1;
#X obj 108 157 hsl 128 15 0 1 0 0 empty empty DEPTH 50 8 0 12 -262130
-159808 -4160 10160 1;
#X floatatom 242 117 5 0 0 0 - - -;
#X floatatom 242 154 5 0 0 0 - - -;
#X text 103 172 0;
#X text 226 172 1;
#X text 104 135 0;
#X text 219 135 50;
#X text 219 208 20;
#X obj 164 445 +~;
#X msg 160 46 10;
#X msg 193 46 0.4;
#X msg 226 46 5;
#X obj 287 68 loadbang;
#X obj 178 281 delwrite~ flg-delayline 1000;
#X obj 164 477 vd~ flg-delayline;
#X obj 370 102 switchstyle;
#X text 240 135 Hz;
#X text 240 209 ms;
#X connect 0 0 1 0;
#X connect 0 0 25 0;
#X connect 0 0 9 0;
#X connect 1 0 9 1;
#X connect 2 0 3 0;
#X connect 3 0 20 0;
#X connect 6 0 21 0;
#X connect 6 0 22 0;
#X connect 6 0 23 0;
#X connect 7 0 9 2;
#X connect 7 0 27 0;
#X connect 9 0 5 0;
#X connect 10 0 20 1;
#X connect 11 0 13 0;
#X connect 12 0 14 0;
#X connect 13 0 10 0;
#X connect 14 0 10 1;
#X connect 20 0 26 0;
#X connect 21 0 11 0;
#X connect 22 0 12 0;
#X connect 23 0 2 0;
#X connect 24 0 7 0;
#X connect 24 0 6 0;
#X connect 26 0 1 1;
#X connect 27 0 7 0;
#X coords 0 -1 1 1 250 130 1 100 100;
