#N canvas 635 476 936 699 12;
#X text 611 112 <= Switch;
#X obj 129 398 wsprobe~;
#X obj 25 398 output~;
#X obj 25 322 *~ 1;
#X obj 25 29 noise~;
#X text 82 29 <= Input signal;
#X obj 25 110 GraphicEqualiser~;
#X text 241 261 Graphic equaliser: The spectral energy distribution
of the input can be adjusted.;
#X text 75 320 <= Output signal;
#X connect 3 0 1 0;
#X connect 3 0 2 1;
#X connect 3 0 2 0;
#X connect 4 0 6 0;
#X connect 6 0 3 0;
