#N canvas 1139 460 661 781 12;
#X obj 25 400 osc~;
#X obj 32 127 hsl 128 15 0 50 0 0 empty empty SPEED 50 8 0 12 -228856
-1 -1 51 1;
#X obj 32 164 hsl 128 15 0 1 0 0 empty empty DEPTH 50 8 0 12 -228856
-1 -1 12700 1;
#X obj 24 626 *~;
#X obj 24 670 outlet~;
#X obj 24 563 clip~ -1 1;
#X obj 113 89 vradio 15 1 0 2 empty empty empty 0 -8 0 10 -228856 -1
-1 0;
#X obj 42 498 + 1;
#X obj 24 531 *~;
#X text 130 86 sine;
#X text 130 102 square;
#X obj 42 466 * 1e+032;
#X obj 191 90 bng 15 250 50 0 empty empty RESET -8 26 0 12 -257985
-260097 -1;
#X floatatom 167 127 5 0 0 0 - - -;
#X floatatom 167 164 5 0 0 0 - - -;
#X obj 29 52 \$1;
#X obj 64 52 \$2;
#X text 27 179 0;
#X text 150 179 1;
#X text 28 142 0;
#X text 143 142 50;
#X obj 191 19 loadbang;
#X obj 8 17 inlet;
#X obj 51 17 inlet;
#X obj 94 17 inlet;
#X obj 318 216 outlet;
#X obj 264 170 outlet;
#X floatatom 50 367 5 0 0 0 - - -;
#X obj 50 304 spigot;
#X obj 89 274 == 0;
#X obj 50 337 bng 15 250 50 0 empty empty empty 17 7 0 10 -262144 -1
-1;
#X text 94 336 Auto reset phase when speed hit zero;
#X text 90 531 Wave type modifier;
#X text 88 629 Magnitude modifier;
#X floatatom 25 245 5 0 0 0 - - -;
#X connect 0 0 8 0;
#X connect 1 0 13 0;
#X connect 2 0 14 0;
#X connect 3 0 4 0;
#X connect 5 0 3 0;
#X connect 6 0 11 0;
#X connect 7 0 8 1;
#X connect 8 0 5 0;
#X connect 11 0 7 0;
#X connect 12 0 16 0;
#X connect 12 0 15 0;
#X connect 12 0 27 0;
#X connect 13 0 34 0;
#X connect 13 0 26 0;
#X connect 14 0 25 0;
#X connect 14 0 3 1;
#X connect 15 0 1 0;
#X connect 16 0 2 0;
#X connect 21 0 12 0;
#X connect 21 0 6 0;
#X connect 22 0 1 0;
#X connect 23 0 2 0;
#X connect 24 0 12 0;
#X connect 27 0 0 1;
#X connect 28 0 30 0;
#X connect 29 0 28 1;
#X connect 30 0 27 0;
#X connect 34 0 29 0;
#X connect 34 0 28 0;
#X connect 34 0 0 0;
#X coords 0 -1 1 1 200 120 1 20 80;
