#N canvas 747 544 969 402 12;
#X obj 169 189 inlet~;
#X obj 234 234 hip~;
#X obj 111 136 hsl 128 15 0 250 0 0 empty empty CUT-OFF 40 8 0 12 -262130
-159808 -4160 10160 1;
#X floatatom 245 133 5 0 0 0 - - -;
#X obj 169 371 outlet~;
#X text 107 151 0;
#X text 215 151 250;
#X obj 291 140 bng 15 250 50 0 empty empty Male 17 7 0 10 -4032 -4034
-1;
#X obj 291 159 bng 15 250 50 0 empty empty Female 17 7 0 10 -4032 -4034
-1;
#X text 289 119 Presets;
#X msg 167 48 100;
#X msg 167 74 150;
#X text 244 151 Hz;
#X obj 312 104 tgl 15 0 empty empty ON 17 7 0 10 -24198 -24198 -1 1
1;
#X obj 169 293 Mixer2Chan~;
#X obj 291 58 loadbang;
#X obj 370 102 switchstyle;
#X connect 0 0 1 0;
#X connect 0 0 14 0;
#X connect 1 0 14 1;
#X connect 2 0 3 0;
#X connect 3 0 1 1;
#X connect 7 0 10 0;
#X connect 8 0 11 0;
#X connect 10 0 2 0;
#X connect 11 0 2 0;
#X connect 13 0 14 2;
#X connect 13 0 16 0;
#X connect 14 0 4 0;
#X connect 15 0 7 0;
#X connect 15 0 13 0;
#X connect 16 0 13 0;
#X coords 0 -1 1 1 250 80 1 100 100;
