#N canvas 635 476 936 699 12;
#X text 284 194 <= Switch;
#X obj 129 398 wsprobe~;
#X obj 25 398 output~;
#X obj 25 322 *~ 1;
#X obj 25 29 noise~;
#X text 98 126 <= Input signal;
#X text 75 320 <= Output signal;
#X obj 25 194 LowCut~;
#X text 288 294 Low-cut: Can be used to attenuate low-frequency hardware
noise.;
#X obj 25 125 lop~ 250;
#X connect 3 0 1 0;
#X connect 3 0 2 1;
#X connect 3 0 2 0;
#X connect 4 0 9 0;
#X connect 7 0 3 0;
#X connect 9 0 7 0;
