#N canvas 803 396 1359 804 12;
#X obj 106 120 hsl 128 15 0 1 0 0 empty empty 0-100 20 8 0 9 -262130
-159808 -4160 12700 1;
#X obj 85 194 -;
#X msg 68 155 1;
#X obj 102 293 +~;
#X obj 102 232 *~;
#X obj 197 232 *~;
#X obj 215 194 inlet~;
#X obj 120 194 inlet~;
#X obj 102 343 outlet~;
#X obj 319 54 inlet;
#X obj 103 41 loadbang;
#X obj 103 76 \$1;
#X text 102 118 DRY;
#X text 211 118 WET;
#X floatatom 440 274 5 0 0 0 - - -;
#X floatatom 502 274 5 0 0 0 - - -;
#X obj 440 302 pack;
#X obj 502 246 * 100;
#X obj 440 246 * 100;
#X msg 440 332 label \$2-\$1;
#X connect 0 0 1 1;
#X connect 0 0 5 0;
#X connect 0 0 2 0;
#X connect 0 0 18 0;
#X connect 1 0 4 0;
#X connect 1 0 17 0;
#X connect 2 0 1 0;
#X connect 3 0 8 0;
#X connect 4 0 3 0;
#X connect 5 0 3 1;
#X connect 6 0 5 1;
#X connect 7 0 4 1;
#X connect 9 0 0 0;
#X connect 10 0 11 0;
#X connect 11 0 0 0;
#X connect 14 0 16 0;
#X connect 15 0 16 1;
#X connect 16 0 19 0;
#X connect 17 0 15 0;
#X connect 18 0 14 0;
#X connect 19 0 0 0;
#X coords 0 -1 1 1 140 40 1 100 100;
