#N canvas 253 161 1227 1030 12;
#X obj 262 71 loadbang;
#X obj 257 204 phasor~;
#X obj 257 269 cos~;
#X obj 311 235 +~ -0.25;
#X obj 311 269 cos~;
#X obj 110 279 hilbert~;
#X obj 110 318 *~;
#X obj 110 369 -~;
#X obj 163 318 *~;
#X msg 120 70 0;
#X obj 123 125 hsl 128 15 -200 1000 0 0 empty empty SHIFT 50 8 0 12
-262130 -159808 -4160 7408 1;
#X floatatom 257 122 5 0 0 0 - - -;
#X obj 257 168 sig~;
#X obj 44 459 outlet~;
#X obj 110 235 inlet~;
#X text 100 140 -200;
#X text 231 140 +1000;
#X text 139 140 0;
#X text 276 140 Hz;
#X obj 262 104 tgl 15 0 empty empty ON 17 7 0 10 -24198 -24198 -1 1
1;
#X obj 44 403 Mixer2Chan~;
#X obj 212 104 bng 15 250 50 0 empty empty Reset 17 7 0 10 -260097
-257985 -1;
#X msg 192 70 150;
#X obj 318 103 switchstyle;
#X connect 0 0 19 0;
#X connect 0 0 22 0;
#X connect 1 0 2 0;
#X connect 1 0 3 0;
#X connect 2 0 6 1;
#X connect 3 0 4 0;
#X connect 4 0 8 1;
#X connect 5 0 6 0;
#X connect 5 1 8 0;
#X connect 6 0 7 0;
#X connect 7 0 20 1;
#X connect 8 0 7 1;
#X connect 9 0 10 0;
#X connect 10 0 11 0;
#X connect 11 0 12 0;
#X connect 12 0 1 0;
#X connect 14 0 5 0;
#X connect 14 0 20 0;
#X connect 19 0 20 2;
#X connect 19 0 23 0;
#X connect 20 0 13 0;
#X connect 21 0 9 0;
#X connect 22 0 10 0;
#X connect 23 0 19 0;
#X coords 0 -1 1 1 200 60 1 100 100;
