#N canvas 635 476 936 699 12;
#X obj 128 251 wsprobe~;
#X obj 24 251 output~;
#X obj 24 175 *~ 1;
#X text 74 177 <= Output signal;
#X obj 24 22 osc~ 440;
#X text 92 20 <= Input signal;
#X text 311 85 <= Switch;
#X obj 24 84 RingModulation~;
#X text 236 200 Ring modulation: Can be used to simulate robot-like
sounds.;
#X connect 2 0 0 0;
#X connect 2 0 1 1;
#X connect 2 0 1 0;
#X connect 4 0 7 0;
#X connect 7 0 2 0;
