#N canvas 632 775 450 300 12;
#X obj 52 75 * 3;
#X obj 52 101 + 13;
#X msg 52 128 color \$1 \$1;
#X msg 223 128 label ON;
#X msg 145 128 label OFF;
#X obj 145 75 select 0;
#X obj 52 36 inlet;
#X obj 145 175 outlet;
#X connect 0 0 1 0;
#X connect 1 0 2 0;
#X connect 2 0 7 0;
#X connect 3 0 7 0;
#X connect 4 0 7 0;
#X connect 5 0 4 0;
#X connect 5 1 3 0;
#X connect 6 0 0 0;
#X connect 6 0 5 0;
