#N canvas 547 283 1492 1014 12;
#X obj 119 261 LFO~;
#X obj 171 462 sig~;
#X obj 119 502 +~;
#X obj 119 462 *~ 0.5;
#X obj 101 543 *~;
#X obj 101 222 inlet~;
#X obj 34 651 outlet~;
#X text 298 123 Presets;
#X obj 300 143 bng 15 250 50 0 empty empty Choppy 17 7 0 10 -4032 -4034
-1;
#X obj 171 431 -;
#X msg 171 401 1;
#X msg 94 15 10;
#X msg 126 15 1;
#X obj 224 400 * 0.5;
#X msg 159 34 20;
#X msg 192 34 0.6;
#X obj 300 161 bng 15 250 50 0 empty empty Trembling 17 7 0 10 -4032
-4034 -1;
#X obj 300 179 bng 15 250 50 0 empty empty Synthetic 17 7 0 10 -4032
-4034 -1;
#X msg 225 53 50;
#X msg 258 53 1;
#X obj 112 128 hsl 128 15 0 50 0 0 empty empty SPEED 50 8 0 12 -262130
-159808 -4160 5080 1;
#X obj 112 165 hsl 128 15 0 1 0 0 empty empty DEPTH 50 8 0 12 -262130
-159808 -4160 25400 1;
#X floatatom 246 125 5 0 0 0 - - -;
#X floatatom 246 162 5 0 0 0 - - -;
#X text 107 180 0;
#X text 230 180 1;
#X text 108 143 0;
#X text 223 143 50;
#X obj 34 583 mixer2Chan~;
#X obj 342 104 tgl 15 0 empty empty ON 17 7 0 10 -24198 -24198 -1 1
1;
#X obj 300 68 loadbang;
#X obj 393 102 switchstyle;
#X text 244 143 Hz;
#X connect 0 0 3 0;
#X connect 0 2 10 0;
#X connect 0 2 13 0;
#X connect 1 0 2 1;
#X connect 2 0 4 1;
#X connect 3 0 2 0;
#X connect 4 0 28 1;
#X connect 5 0 4 0;
#X connect 5 0 28 0;
#X connect 8 0 11 0;
#X connect 8 0 12 0;
#X connect 9 0 1 0;
#X connect 10 0 9 0;
#X connect 11 0 20 0;
#X connect 12 0 21 0;
#X connect 13 0 9 1;
#X connect 14 0 20 0;
#X connect 15 0 21 0;
#X connect 16 0 14 0;
#X connect 16 0 15 0;
#X connect 17 0 18 0;
#X connect 17 0 19 0;
#X connect 18 0 20 0;
#X connect 19 0 21 0;
#X connect 20 0 22 0;
#X connect 21 0 23 0;
#X connect 22 0 0 0;
#X connect 23 0 0 1;
#X connect 28 0 6 0;
#X connect 29 0 28 2;
#X connect 29 0 31 0;
#X connect 30 0 8 0;
#X connect 30 0 29 0;
#X connect 31 0 29 0;
#X coords 0 -1 1 1 280 100 1 100 100;
