#N canvas 816 208 1227 1030 12;
#X obj 212 432 phasor~;
#X obj 212 497 cos~;
#X obj 266 463 +~ -0.25;
#X obj 266 497 cos~;
#X obj 112 503 hilbert~;
#X obj 112 542 *~;
#X obj 112 593 -~;
#X obj 165 542 *~;
#X obj 46 683 outlet~;
#X obj 112 459 inlet~;
#X obj 312 104 tgl 15 0 empty empty ON 17 7 0 10 -24198 -24198 -1 1
1;
#X obj 46 627 Mixer2Chan~;
#X obj 212 289 LFO~;
#X obj 109 119 hsl 128 15 0 50 0 0 empty empty SPEED 50 8 0 12 -262130
-159808 -4160 102 1;
#X obj 109 156 hsl 128 15 0 500 0 0 empty empty DEPTH 50 8 0 12 -262130
-159808 -4160 10160 1;
#X floatatom 244 116 5 0 0 0 - - -;
#X floatatom 244 153 5 0 0 0 - - -;
#X text 104 171 0;
#X text 105 134 0;
#X text 220 134 50;
#X text 213 171 500;
#X obj 287 159 bng 15 250 50 0 empty empty Gollum 17 7 0 10 -4032 -4034
-1;
#X obj 287 141 bng 15 250 50 0 empty empty Winding 17 7 0 10 -4032
-4034 -1;
#X text 284 119 Presets;
#X msg 216 48 50;
#X msg 249 48 350;
#X msg 150 29 0.2;
#X msg 183 29 200;
#X obj 287 65 loadbang;
#X obj 370 102 switchstyle;
#X text 243 134 Hz;
#X connect 0 0 1 0;
#X connect 0 0 2 0;
#X connect 1 0 5 1;
#X connect 2 0 3 0;
#X connect 3 0 7 1;
#X connect 4 0 5 0;
#X connect 4 1 7 0;
#X connect 5 0 6 0;
#X connect 6 0 11 1;
#X connect 7 0 6 1;
#X connect 9 0 4 0;
#X connect 9 0 11 0;
#X connect 10 0 11 2;
#X connect 10 0 29 0;
#X connect 11 0 8 0;
#X connect 12 0 0 0;
#X connect 13 0 15 0;
#X connect 14 0 16 0;
#X connect 15 0 12 0;
#X connect 16 0 12 1;
#X connect 21 0 24 0;
#X connect 21 0 25 0;
#X connect 22 0 26 0;
#X connect 22 0 27 0;
#X connect 24 0 13 0;
#X connect 25 0 14 0;
#X connect 26 0 13 0;
#X connect 27 0 14 0;
#X connect 28 0 22 0;
#X connect 28 0 10 0;
#X connect 29 0 10 0;
#X coords 0 -1 1 1 250 90 1 100 100;
